# xmcd CD database file
#
# Track frame offsets:
#	150
#	12931
#	27206
#	38689
#	52477
#	63588
#	74073
#	88196
#	103932
#
# Disc length: 1610 seconds
#
# Revision: 0
# Processed by: cddbd v1.5.2PL0 Copyright (c) Steve Scherf et al.
# Submitted via: CDex 1.51
#
DISCID=84064809
DTITLE=Mr. Pink Rabbit And His Turkey Banjo Twins - The Beatles On A G-String
DYEAR=2003
DGENRE=Jazz
TTITLE0=Back with the B.1.B.2.
TTITLE1=Gläng Back
TTITLE2=A Hard Day's Gläng
TTITLE3=Banjo Lane
TTITLE4=Overdrive My Gläng
TTITLE5=Gläng!
TTITLE6=Ban-jo-di, Ban-jo-da
TTITLE7=Lucy in Disguise with Banjos
TTITLE8=Happy Banjo (Gläng is Over)
EXTD=YEAR: 2003
EXTT0=
EXTT1=
EXTT2=
EXTT3=
EXTT4=
EXTT5=
EXTT6=
EXTT7=
EXTT8=
PLAYORDER=
